<svg xmlns="http://www.w3.org/2000/svg" xmlns:xlink="http://www.w3.org/1999/xlink" width="1080" zoomAndPan="magnify" viewBox="0 0 810 809.999993" height="1080" preserveAspectRatio="xMidYMid meet" version="1.0"><defs><clipPath id="f5be1b4fa3"><path d="M 0 8.265625 L 807 8.265625 L 807 801.765625 L 0 801.765625 Z M 0 8.265625 " clip-rule="nonzero"/></clipPath></defs><g clip-path="url(#f5be1b4fa3)"><path fill="#fff5ee" d="M 403.792969 8.265625 C 180.507812 8.265625 0.00390625 190.101562 0.00390625 415.054688 C 0.00390625 594.875 115.65625 747.089844 276.101562 800.960938 C 296.164062 805.011719 303.511719 792.207031 303.511719 781.4375 C 303.511719 772.007812 302.851562 739.683594 302.851562 706 C 190.523438 730.253906 167.132812 657.507812 167.132812 657.507812 C 149.082031 610.363281 122.335938 598.246094 122.335938 598.246094 C 85.574219 573.328125 125.015625 573.328125 125.015625 573.328125 C 165.796875 576.023438 187.195312 615.085938 187.195312 615.085938 C 223.289062 677.039062 281.449219 659.535156 304.851562 648.757812 C 308.1875 622.488281 318.890625 604.304688 330.257812 594.207031 C 240.671875 584.773438 146.414062 549.753906 146.414062 393.5 C 146.414062 349.050781 162.449219 312.683594 187.855469 284.398438 C 183.847656 274.300781 169.804688 232.535156 191.871094 176.636719 C 191.871094 176.636719 225.964844 165.859375 302.839844 218.394531 C 335.898438 209.449219 369.546875 204.957031 403.792969 204.921875 C 437.886719 204.921875 472.644531 209.640625 504.738281 218.394531 C 581.621094 165.859375 615.714844 176.636719 615.714844 176.636719 C 637.78125 232.535156 623.730469 274.300781 619.722656 284.398438 C 645.800781 312.683594 661.171875 349.050781 661.171875 393.5 C 661.171875 549.753906 566.917969 584.097656 476.660156 594.207031 C 491.371094 607 504.066406 631.242188 504.066406 669.636719 C 504.066406 724.183594 503.40625 767.964844 503.40625 781.429688 C 503.40625 792.207031 510.761719 805.011719 530.8125 800.96875 C 691.257812 747.082031 806.914062 594.875 806.914062 415.054688 C 807.574219 190.101562 626.410156 8.265625 403.792969 8.265625 Z M 403.792969 8.265625 " fill-opacity="1" fill-rule="evenodd"/></g></svg>