<svg xmlns="http://www.w3.org/2000/svg" xmlns:xlink="http://www.w3.org/1999/xlink" width="600" zoomAndPan="magnify" viewBox="0 0 450 149.999998" height="200" preserveAspectRatio="xMidYMid meet" version="1.0"><defs><g/><clipPath id="19d5aa36cc"><path d="M 195 52 L 214 52 L 214 71 L 195 71 Z M 195 52 " clip-rule="nonzero"/></clipPath><clipPath id="20a81f8b22"><path d="M 212.671875 21.28125 L 258.296875 42.335938 L 237.242188 87.960938 L 191.617188 66.90625 Z M 212.671875 21.28125 " clip-rule="nonzero"/></clipPath><clipPath id="749346d3a3"><path d="M 212.671875 21.28125 L 258.296875 42.335938 L 237.242188 87.960938 L 191.617188 66.90625 Z M 212.671875 21.28125 " clip-rule="nonzero"/></clipPath><clipPath id="d6043198c1"><path d="M 215 34 L 251 34 L 251 70 L 215 70 Z M 215 34 " clip-rule="nonzero"/></clipPath><clipPath id="b2318597ca"><path d="M 212.671875 21.28125 L 258.296875 42.335938 L 237.242188 87.960938 L 191.617188 66.90625 Z M 212.671875 21.28125 " clip-rule="nonzero"/></clipPath><clipPath id="fb05d162e8"><path d="M 212.671875 21.28125 L 258.296875 42.335938 L 237.242188 87.960938 L 191.617188 66.90625 Z M 212.671875 21.28125 " clip-rule="nonzero"/></clipPath></defs><g fill="#fff5ee" fill-opacity="1"><g transform="translate(39.700464, 88.173345)"><g><path d="M 9.375 0 L 9.375 -17.328125 L 0.21875 -17.328125 L 0.21875 -21.8125 L 24.65625 -21.8125 L 24.65625 -17.328125 L 15.53125 -17.328125 L 15.53125 0 Z M 9.375 0 "/></g></g></g><g fill="#fff5ee" fill-opacity="1"><g transform="translate(64.564858, 88.173345)"><g><path d="M 1.21875 0 L 1.21875 -22.71875 L 6.828125 -22.71875 L 6.828125 -11.796875 L 6.859375 -11.796875 C 7.597656 -13.160156 8.6875 -14.238281 10.125 -15.03125 C 11.5625 -15.832031 13.300781 -16.234375 15.34375 -16.234375 C 17.0625 -16.234375 18.546875 -15.929688 19.796875 -15.328125 C 21.054688 -14.722656 22.023438 -13.863281 22.703125 -12.75 C 23.390625 -11.644531 23.722656 -10.316406 23.703125 -8.765625 L 23.703125 0 L 18.09375 0 L 18.09375 -8.171875 C 18.09375 -9.617188 17.648438 -10.75 16.765625 -11.5625 C 15.878906 -12.382812 14.617188 -12.796875 12.984375 -12.796875 C 11.066406 -12.796875 9.554688 -12.296875 8.453125 -11.296875 C 7.347656 -10.296875 6.796875 -8.898438 6.796875 -7.109375 L 6.796875 0 Z M 1.21875 0 "/></g></g></g><g fill="#fff5ee" fill-opacity="1"><g transform="translate(89.276141, 88.173345)"><g><path d="M 13.78125 0.546875 C 11.226562 0.546875 8.972656 0.195312 7.015625 -0.5 C 5.054688 -1.207031 3.523438 -2.195312 2.421875 -3.46875 C 1.316406 -4.75 0.765625 -6.226562 0.765625 -7.90625 C 0.765625 -9.53125 1.269531 -10.96875 2.28125 -12.21875 C 3.289062 -13.46875 4.691406 -14.445312 6.484375 -15.15625 C 8.285156 -15.875 10.347656 -16.234375 12.671875 -16.234375 C 14.960938 -16.234375 16.96875 -15.878906 18.6875 -15.171875 C 20.414062 -14.472656 21.765625 -13.5 22.734375 -12.25 C 23.703125 -11 24.1875 -9.539062 24.1875 -7.875 C 24.1875 -7.6875 24.175781 -7.453125 24.15625 -7.171875 C 24.132812 -6.898438 24.097656 -6.65625 24.046875 -6.4375 L 6.734375 -6.4375 C 6.960938 -5.675781 7.4375 -5.035156 8.15625 -4.515625 C 8.882812 -3.992188 9.773438 -3.597656 10.828125 -3.328125 C 11.878906 -3.066406 13.003906 -2.9375 14.203125 -2.9375 C 15.347656 -2.9375 16.457031 -3.023438 17.53125 -3.203125 C 18.601562 -3.390625 19.582031 -3.644531 20.46875 -3.96875 C 21.363281 -4.300781 22.082031 -4.671875 22.625 -5.078125 L 24.40625 -2.265625 C 23.695312 -1.710938 22.785156 -1.222656 21.671875 -0.796875 C 20.554688 -0.367188 19.320312 -0.0390625 17.96875 0.1875 C 16.625 0.425781 15.226562 0.546875 13.78125 0.546875 Z M 6.609375 -9.15625 L 18.53125 -9.15625 C 18.46875 -9.914062 18.164062 -10.570312 17.625 -11.125 C 17.082031 -11.6875 16.375 -12.117188 15.5 -12.421875 C 14.632812 -12.734375 13.664062 -12.890625 12.59375 -12.890625 C 11.53125 -12.890625 10.5625 -12.726562 9.6875 -12.40625 C 8.820312 -12.09375 8.117188 -11.65625 7.578125 -11.09375 C 7.035156 -10.539062 6.710938 -9.894531 6.609375 -9.15625 Z M 6.609375 -9.15625 "/></g></g></g><g fill="#fff5ee" fill-opacity="1"><g transform="translate(114.783578, 88.173345)"><g><path d="M 15.34375 -16.234375 C 17.0625 -16.234375 18.546875 -15.929688 19.796875 -15.328125 C 21.054688 -14.722656 22.023438 -13.863281 22.703125 -12.75 C 23.390625 -11.644531 23.722656 -10.316406 23.703125 -8.765625 L 23.703125 0 L 18.09375 0 L 18.09375 -8.171875 C 18.09375 -9.617188 17.648438 -10.75 16.765625 -11.5625 C 15.878906 -12.382812 14.617188 -12.796875 12.984375 -12.796875 C 11.066406 -12.796875 9.554688 -12.296875 8.453125 -11.296875 C 7.347656 -10.296875 6.796875 -8.898438 6.796875 -7.109375 L 6.796875 0 L 1.21875 0 L 1.21875 -15.6875 L 6.09375 -15.6875 L 6.671875 -11.796875 L 6.703125 -11.796875 C 7.421875 -13.160156 8.53125 -14.238281 10.03125 -15.03125 C 11.53125 -15.832031 13.300781 -16.234375 15.34375 -16.234375 Z M 15.34375 -16.234375 "/></g></g></g><g fill="#fff5ee" fill-opacity="1"><g transform="translate(139.494862, 88.173345)"><g><path d="M 4.21875 -17.828125 C 3.28125 -17.828125 2.507812 -18.097656 1.90625 -18.640625 C 1.3125 -19.179688 1.015625 -19.878906 1.015625 -20.734375 C 1.015625 -21.585938 1.3125 -22.285156 1.90625 -22.828125 C 2.507812 -23.367188 3.28125 -23.640625 4.21875 -23.640625 C 5.1875 -23.640625 5.96875 -23.367188 6.5625 -22.828125 C 7.164062 -22.285156 7.46875 -21.585938 7.46875 -20.734375 C 7.46875 -19.878906 7.179688 -19.179688 6.609375 -18.640625 C 6.035156 -18.097656 5.238281 -17.828125 4.21875 -17.828125 Z M 0.421875 6.984375 C -0.347656 6.984375 -1.144531 6.921875 -1.96875 6.796875 C -2.800781 6.671875 -3.5625 6.488281 -4.25 6.25 L -3.609375 2.75 C -3.222656 2.894531 -2.804688 3.019531 -2.359375 3.125 C -1.910156 3.226562 -1.484375 3.28125 -1.078125 3.28125 C -0.296875 3.28125 0.316406 3.054688 0.765625 2.609375 C 1.210938 2.171875 1.4375 1.546875 1.4375 0.734375 L 1.4375 -15.6875 L 7.046875 -15.6875 L 7.046875 1.28125 C 7.046875 3.0625 6.457031 4.457031 5.28125 5.46875 C 4.101562 6.476562 2.484375 6.984375 0.421875 6.984375 Z M 0.421875 6.984375 "/></g></g></g><g fill="#fff5ee" fill-opacity="1"><g transform="translate(147.9463, 88.173345)"><g><path d="M 4.203125 -17.828125 C 3.253906 -17.828125 2.476562 -18.097656 1.875 -18.640625 C 1.28125 -19.179688 0.984375 -19.878906 0.984375 -20.734375 C 0.984375 -21.585938 1.28125 -22.285156 1.875 -22.828125 C 2.476562 -23.367188 3.253906 -23.640625 4.203125 -23.640625 C 5.160156 -23.640625 5.9375 -23.367188 6.53125 -22.828125 C 7.132812 -22.285156 7.4375 -21.585938 7.4375 -20.734375 C 7.4375 -19.878906 7.132812 -19.179688 6.53125 -18.640625 C 5.9375 -18.097656 5.160156 -17.828125 4.203125 -17.828125 Z M 1.40625 0 L 1.40625 -15.6875 L 7.015625 -15.6875 L 7.015625 0 Z M 1.40625 0 "/></g></g></g><g fill="#fff5ee" fill-opacity="1"><g transform="translate(156.367126, 88.173345)"><g><path d="M 7.71875 0 L 0.03125 -15.6875 L 5.875 -15.6875 L 11.109375 -4.46875 L 11.140625 -4.46875 L 16.8125 -15.6875 L 22.140625 -15.6875 L 27.8125 -4.3125 L 27.84375 -4.3125 L 33.078125 -15.6875 L 38.890625 -15.6875 L 31.265625 0 L 25.109375 0 L 19.484375 -11.296875 L 19.453125 -11.296875 L 13.84375 0 Z M 7.71875 0 "/></g></g></g><g fill="#fff5ee" fill-opacity="1"><g transform="translate(195.256012, 88.173345)"><g><path d="M 13.78125 0.546875 C 11.226562 0.546875 8.972656 0.195312 7.015625 -0.5 C 5.054688 -1.207031 3.523438 -2.195312 2.421875 -3.46875 C 1.316406 -4.75 0.765625 -6.226562 0.765625 -7.90625 C 0.765625 -9.53125 1.269531 -10.96875 2.28125 -12.21875 C 3.289062 -13.46875 4.691406 -14.445312 6.484375 -15.15625 C 8.285156 -15.875 10.347656 -16.234375 12.671875 -16.234375 C 14.960938 -16.234375 16.96875 -15.878906 18.6875 -15.171875 C 20.414062 -14.472656 21.765625 -13.5 22.734375 -12.25 C 23.703125 -11 24.1875 -9.539062 24.1875 -7.875 C 24.1875 -7.6875 24.175781 -7.453125 24.15625 -7.171875 C 24.132812 -6.898438 24.097656 -6.65625 24.046875 -6.4375 L 6.734375 -6.4375 C 6.960938 -5.675781 7.4375 -5.035156 8.15625 -4.515625 C 8.882812 -3.992188 9.773438 -3.597656 10.828125 -3.328125 C 11.878906 -3.066406 13.003906 -2.9375 14.203125 -2.9375 C 15.347656 -2.9375 16.457031 -3.023438 17.53125 -3.203125 C 18.601562 -3.390625 19.582031 -3.644531 20.46875 -3.96875 C 21.363281 -4.300781 22.082031 -4.671875 22.625 -5.078125 L 24.40625 -2.265625 C 23.695312 -1.710938 22.785156 -1.222656 21.671875 -0.796875 C 20.554688 -0.367188 19.320312 -0.0390625 17.96875 0.1875 C 16.625 0.425781 15.226562 0.546875 13.78125 0.546875 Z M 6.609375 -9.15625 L 18.53125 -9.15625 C 18.46875 -9.914062 18.164062 -10.570312 17.625 -11.125 C 17.082031 -11.6875 16.375 -12.117188 15.5 -12.421875 C 14.632812 -12.734375 13.664062 -12.890625 12.59375 -12.890625 C 11.53125 -12.890625 10.5625 -12.726562 9.6875 -12.40625 C 8.820312 -12.09375 8.117188 -11.65625 7.578125 -11.09375 C 7.035156 -10.539062 6.710938 -9.894531 6.609375 -9.15625 Z M 6.609375 -9.15625 "/></g></g></g><g fill="#fff5ee" fill-opacity="1"><g transform="translate(220.76345, 88.173345)"><g/></g></g><g fill="#fff5ee" fill-opacity="1"><g transform="translate(228.786192, 88.173345)"><g><path d="M 1.53125 0 L 1.53125 -21.8125 L 9.671875 -21.8125 L 18.375 -5.484375 L 18.4375 -5.484375 L 27.046875 -21.8125 L 35.28125 -21.8125 L 35.28125 0 L 29.4375 0 L 29.4375 -15.5 L 29.375 -15.5 L 21.25 0 L 15.703125 0 L 7.4375 -15.46875 L 7.375 -15.46875 L 7.375 0 Z M 1.53125 0 "/></g></g></g><g fill="#fff5ee" fill-opacity="1"><g transform="translate(265.592838, 88.173345)"><g><path d="M 1.21875 0 L 1.21875 -22.71875 L 6.828125 -22.71875 L 6.828125 -11.796875 L 6.859375 -11.796875 C 7.597656 -13.160156 8.6875 -14.238281 10.125 -15.03125 C 11.5625 -15.832031 13.300781 -16.234375 15.34375 -16.234375 C 17.0625 -16.234375 18.546875 -15.929688 19.796875 -15.328125 C 21.054688 -14.722656 22.023438 -13.863281 22.703125 -12.75 C 23.390625 -11.644531 23.722656 -10.316406 23.703125 -8.765625 L 23.703125 0 L 18.09375 0 L 18.09375 -8.171875 C 18.09375 -9.617188 17.648438 -10.75 16.765625 -11.5625 C 15.878906 -12.382812 14.617188 -12.796875 12.984375 -12.796875 C 11.066406 -12.796875 9.554688 -12.296875 8.453125 -11.296875 C 7.347656 -10.296875 6.796875 -8.898438 6.796875 -7.109375 L 6.796875 0 Z M 1.21875 0 "/></g></g></g><g fill="#fff5ee" fill-opacity="1"><g transform="translate(290.304133, 88.173345)"><g><path d="M 1.21875 0 L 1.21875 -22.71875 L 6.828125 -22.71875 L 6.828125 0 Z M 1.21875 0 "/></g></g></g><g fill="#fff5ee" fill-opacity="1"><g transform="translate(298.3575, 88.173345)"><g><path d="M 12.984375 0.546875 C 10.535156 0.546875 8.390625 0.203125 6.546875 -0.484375 C 4.710938 -1.179688 3.289062 -2.160156 2.28125 -3.421875 C 1.269531 -4.691406 0.765625 -6.164062 0.765625 -7.84375 C 0.765625 -9.53125 1.269531 -11.003906 2.28125 -12.265625 C 3.289062 -13.523438 4.710938 -14.5 6.546875 -15.1875 C 8.390625 -15.882812 10.535156 -16.234375 12.984375 -16.234375 C 15.453125 -16.234375 17.601562 -15.882812 19.4375 -15.1875 C 21.28125 -14.5 22.707031 -13.523438 23.71875 -12.265625 C 24.726562 -11.003906 25.234375 -9.53125 25.234375 -7.84375 C 25.234375 -6.164062 24.726562 -4.691406 23.71875 -3.421875 C 22.707031 -2.160156 21.28125 -1.179688 19.4375 -0.484375 C 17.601562 0.203125 15.453125 0.546875 12.984375 0.546875 Z M 12.984375 -2.96875 C 15.003906 -2.96875 16.613281 -3.410156 17.8125 -4.296875 C 19.019531 -5.191406 19.625 -6.375 19.625 -7.84375 C 19.625 -9.3125 19.019531 -10.488281 17.8125 -11.375 C 16.613281 -12.257812 15.003906 -12.703125 12.984375 -12.703125 C 10.984375 -12.703125 9.378906 -12.257812 8.171875 -11.375 C 6.972656 -10.488281 6.375 -9.3125 6.375 -7.84375 C 6.375 -6.375 6.972656 -5.191406 8.171875 -4.296875 C 9.378906 -3.410156 10.984375 -2.96875 12.984375 -2.96875 Z M 12.984375 -2.96875 "/></g></g></g><g fill="#fff5ee" fill-opacity="1"><g transform="translate(324.354882, 88.173345)"><g><path d="M 15.34375 -16.234375 C 17.0625 -16.234375 18.546875 -15.929688 19.796875 -15.328125 C 21.054688 -14.722656 22.023438 -13.863281 22.703125 -12.75 C 23.390625 -11.644531 23.722656 -10.316406 23.703125 -8.765625 L 23.703125 0 L 18.09375 0 L 18.09375 -8.171875 C 18.09375 -9.617188 17.648438 -10.75 16.765625 -11.5625 C 15.878906 -12.382812 14.617188 -12.796875 12.984375 -12.796875 C 11.066406 -12.796875 9.554688 -12.296875 8.453125 -11.296875 C 7.347656 -10.296875 6.796875 -8.898438 6.796875 -7.109375 L 6.796875 0 L 1.21875 0 L 1.21875 -15.6875 L 6.09375 -15.6875 L 6.671875 -11.796875 L 6.703125 -11.796875 C 7.421875 -13.160156 8.53125 -14.238281 10.03125 -15.03125 C 11.53125 -15.832031 13.300781 -16.234375 15.34375 -16.234375 Z M 15.34375 -16.234375 "/></g></g></g><g fill="#fff5ee" fill-opacity="1"><g transform="translate(349.066153, 88.173345)"><g><path d="M 10.75 6.984375 C 8.34375 6.984375 6.140625 6.757812 4.140625 6.3125 C 2.148438 5.863281 0.578125 5.257812 -0.578125 4.5 L 1.4375 0.734375 C 2.5625 1.453125 3.929688 2.023438 5.546875 2.453125 C 7.160156 2.878906 8.820312 3.09375 10.53125 3.09375 C 13.164062 3.09375 15.25 2.625 16.78125 1.6875 C 18.3125 0.75 19.078125 -0.523438 19.078125 -2.140625 L 19.078125 -3.21875 L 19.046875 -3.21875 C 18.597656 -2.539062 17.945312 -1.953125 17.09375 -1.453125 C 16.25 -0.953125 15.265625 -0.554688 14.140625 -0.265625 C 13.023438 0.015625 11.832031 0.15625 10.5625 0.15625 C 8.601562 0.15625 6.890625 -0.179688 5.421875 -0.859375 C 3.953125 -1.535156 2.804688 -2.476562 1.984375 -3.6875 C 1.171875 -4.90625 0.765625 -6.332031 0.765625 -7.96875 C 0.765625 -9.632812 1.175781 -11.082031 2 -12.3125 C 2.832031 -13.550781 3.992188 -14.515625 5.484375 -15.203125 C 6.972656 -15.890625 8.726562 -16.234375 10.75 -16.234375 C 12.03125 -16.234375 13.222656 -16.046875 14.328125 -15.671875 C 15.429688 -15.304688 16.394531 -14.796875 17.21875 -14.140625 C 18.050781 -13.492188 18.671875 -12.734375 19.078125 -11.859375 L 19.109375 -11.859375 L 19.84375 -15.703125 L 24.6875 -15.703125 L 24.6875 -2.234375 C 24.6875 -0.359375 24.117188 1.269531 22.984375 2.65625 C 21.847656 4.050781 20.238281 5.117188 18.15625 5.859375 C 16.070312 6.609375 13.601562 6.984375 10.75 6.984375 Z M 12.796875 -3.1875 C 14.734375 -3.1875 16.300781 -3.613281 17.5 -4.46875 C 18.695312 -5.320312 19.296875 -6.4375 19.296875 -7.8125 C 19.296875 -9.21875 18.695312 -10.347656 17.5 -11.203125 C 16.300781 -12.066406 14.734375 -12.5 12.796875 -12.5 C 10.878906 -12.5 9.328125 -12.066406 8.140625 -11.203125 C 6.960938 -10.347656 6.375 -9.21875 6.375 -7.8125 C 6.375 -6.894531 6.644531 -6.085938 7.1875 -5.390625 C 7.726562 -4.691406 8.484375 -4.148438 9.453125 -3.765625 C 10.421875 -3.378906 11.535156 -3.1875 12.796875 -3.1875 Z M 12.796875 -3.1875 "/></g></g></g><g fill="#fff5ee" fill-opacity="1"><g transform="translate(374.971662, 88.173345)"><g><path d="M 12.984375 0.546875 C 10.535156 0.546875 8.390625 0.203125 6.546875 -0.484375 C 4.710938 -1.179688 3.289062 -2.160156 2.28125 -3.421875 C 1.269531 -4.691406 0.765625 -6.164062 0.765625 -7.84375 C 0.765625 -9.53125 1.269531 -11.003906 2.28125 -12.265625 C 3.289062 -13.523438 4.710938 -14.5 6.546875 -15.1875 C 8.390625 -15.882812 10.535156 -16.234375 12.984375 -16.234375 C 15.453125 -16.234375 17.601562 -15.882812 19.4375 -15.1875 C 21.28125 -14.5 22.707031 -13.523438 23.71875 -12.265625 C 24.726562 -11.003906 25.234375 -9.53125 25.234375 -7.84375 C 25.234375 -6.164062 24.726562 -4.691406 23.71875 -3.421875 C 22.707031 -2.160156 21.28125 -1.179688 19.4375 -0.484375 C 17.601562 0.203125 15.453125 0.546875 12.984375 0.546875 Z M 12.984375 -2.96875 C 15.003906 -2.96875 16.613281 -3.410156 17.8125 -4.296875 C 19.019531 -5.191406 19.625 -6.375 19.625 -7.84375 C 19.625 -9.3125 19.019531 -10.488281 17.8125 -11.375 C 16.613281 -12.257812 15.003906 -12.703125 12.984375 -12.703125 C 10.984375 -12.703125 9.378906 -12.257812 8.171875 -11.375 C 6.972656 -10.488281 6.375 -9.3125 6.375 -7.84375 C 6.375 -6.375 6.972656 -5.191406 8.171875 -4.296875 C 9.378906 -3.410156 10.984375 -2.96875 12.984375 -2.96875 Z M 12.984375 -2.96875 "/></g></g></g><g fill="#fff5ee" fill-opacity="1"><g transform="translate(118.825459, 104.673344)"><g><path d="M 7.0625 0.34375 C 6.132812 0.34375 5.226562 0.238281 4.34375 0.03125 C 3.46875 -0.175781 2.675781 -0.460938 1.96875 -0.828125 C 1.269531 -1.191406 0.71875 -1.609375 0.3125 -2.078125 L 1.53125 -3.875 C 1.882812 -3.457031 2.359375 -3.082031 2.953125 -2.75 C 3.554688 -2.414062 4.226562 -2.15625 4.96875 -1.96875 C 5.707031 -1.789062 6.457031 -1.703125 7.21875 -1.703125 C 8.125 -1.703125 8.847656 -1.820312 9.390625 -2.0625 C 9.929688 -2.3125 10.203125 -2.632812 10.203125 -3.03125 C 10.203125 -3.351562 9.992188 -3.617188 9.578125 -3.828125 C 9.160156 -4.035156 8.488281 -4.195312 7.5625 -4.3125 L 5.265625 -4.609375 C 3.703125 -4.796875 2.5625 -5.132812 1.84375 -5.625 C 1.132812 -6.113281 0.78125 -6.800781 0.78125 -7.6875 C 0.789062 -8.4375 1.039062 -9.066406 1.53125 -9.578125 C 2.03125 -10.097656 2.726562 -10.5 3.625 -10.78125 C 4.519531 -11.0625 5.550781 -11.203125 6.71875 -11.203125 C 7.882812 -11.203125 8.960938 -11.039062 9.953125 -10.71875 C 10.953125 -10.394531 11.75 -9.96875 12.34375 -9.4375 L 11.28125 -7.671875 C 10.78125 -8.140625 10.117188 -8.515625 9.296875 -8.796875 C 8.484375 -9.085938 7.628906 -9.234375 6.734375 -9.234375 C 5.867188 -9.222656 5.160156 -9.097656 4.609375 -8.859375 C 4.054688 -8.617188 3.78125 -8.300781 3.78125 -7.90625 C 3.769531 -7.625 3.941406 -7.394531 4.296875 -7.21875 C 4.648438 -7.039062 5.210938 -6.90625 5.984375 -6.8125 L 8.25 -6.515625 C 9.976562 -6.328125 11.234375 -5.972656 12.015625 -5.453125 C 12.796875 -4.941406 13.1875 -4.222656 13.1875 -3.296875 C 13.195312 -2.566406 12.945312 -1.925781 12.4375 -1.375 C 11.9375 -0.832031 11.222656 -0.410156 10.296875 -0.109375 C 9.378906 0.191406 8.300781 0.34375 7.0625 0.34375 Z M 7.0625 0.34375 "/></g></g></g><g fill="#fff5ee" fill-opacity="1"><g transform="translate(132.312687, 104.673344)"><g><path d="M 6.453125 0.28125 C 5.234375 0.28125 4.164062 0.109375 3.25 -0.234375 C 2.34375 -0.585938 1.632812 -1.078125 1.125 -1.703125 C 0.625 -2.335938 0.375 -3.070312 0.375 -3.90625 C 0.375 -4.75 0.625 -5.476562 1.125 -6.09375 C 1.632812 -6.71875 2.34375 -7.203125 3.25 -7.546875 C 4.164062 -7.898438 5.234375 -8.078125 6.453125 -8.078125 C 7.679688 -8.078125 8.753906 -7.898438 9.671875 -7.546875 C 10.585938 -7.203125 11.296875 -6.71875 11.796875 -6.09375 C 12.296875 -5.476562 12.546875 -4.75 12.546875 -3.90625 C 12.546875 -3.070312 12.296875 -2.335938 11.796875 -1.703125 C 11.296875 -1.078125 10.585938 -0.585938 9.671875 -0.234375 C 8.753906 0.109375 7.679688 0.28125 6.453125 0.28125 Z M 6.453125 -1.484375 C 7.460938 -1.484375 8.265625 -1.703125 8.859375 -2.140625 C 9.460938 -2.578125 9.765625 -3.164062 9.765625 -3.90625 C 9.765625 -4.632812 9.460938 -5.21875 8.859375 -5.65625 C 8.265625 -6.101562 7.460938 -6.328125 6.453125 -6.328125 C 5.460938 -6.328125 4.664062 -6.101562 4.0625 -5.65625 C 3.46875 -5.21875 3.171875 -4.632812 3.171875 -3.90625 C 3.171875 -3.164062 3.46875 -2.578125 4.0625 -2.140625 C 4.664062 -1.703125 5.460938 -1.484375 6.453125 -1.484375 Z M 6.453125 -1.484375 "/></g></g></g><g fill="#fff5ee" fill-opacity="1"><g transform="translate(145.236682, 104.673344)"><g><path d="M 2.46875 0 L 2.46875 -6.03125 L 0.078125 -6.03125 L 0.078125 -7.796875 L 2.46875 -7.796875 L 2.46875 -8.359375 C 2.46875 -9.378906 2.832031 -10.160156 3.5625 -10.703125 C 4.289062 -11.253906 5.3125 -11.53125 6.625 -11.53125 C 7.34375 -11.53125 8.019531 -11.421875 8.65625 -11.203125 C 9.289062 -10.992188 9.816406 -10.695312 10.234375 -10.3125 L 9.4375 -8.765625 C 9.132812 -9.035156 8.773438 -9.242188 8.359375 -9.390625 C 7.953125 -9.546875 7.53125 -9.625 7.09375 -9.625 C 6.519531 -9.625 6.066406 -9.488281 5.734375 -9.21875 C 5.410156 -8.957031 5.25 -8.585938 5.25 -8.109375 L 5.25 -7.796875 L 9.734375 -7.796875 L 9.734375 -6.03125 L 5.25 -6.03125 L 5.25 0 Z M 2.46875 0 "/></g></g></g><g fill="#fff5ee" fill-opacity="1"><g transform="translate(155.237937, 104.673344)"><g><path d="M 6.265625 0.28125 C 5.078125 0.28125 4.148438 0.015625 3.484375 -0.515625 C 2.816406 -1.054688 2.476562 -1.800781 2.46875 -2.75 L 2.46875 -6.03125 L 0.078125 -6.03125 L 0.078125 -7.796875 L 2.453125 -7.796875 L 2.453125 -10.03125 L 5.25 -10.53125 L 5.25 -7.796875 L 10.125 -7.796875 L 10.125 -6.03125 L 5.25 -6.03125 L 5.25 -3.3125 C 5.238281 -2.78125 5.375 -2.375 5.65625 -2.09375 C 5.945312 -1.8125 6.390625 -1.671875 6.984375 -1.671875 C 7.515625 -1.671875 7.992188 -1.785156 8.421875 -2.015625 C 8.847656 -2.253906 9.234375 -2.585938 9.578125 -3.015625 L 10.40625 -1.5 C 9.90625 -0.914062 9.316406 -0.472656 8.640625 -0.171875 C 7.960938 0.128906 7.171875 0.28125 6.265625 0.28125 Z M 6.265625 0.28125 "/></g></g></g><g fill="#fff5ee" fill-opacity="1"><g transform="translate(165.832876, 104.673344)"><g><path d="M 3.84375 0 L 0.015625 -7.796875 L 2.921875 -7.796875 L 5.53125 -2.21875 L 5.546875 -2.21875 L 8.359375 -7.796875 L 11.015625 -7.796875 L 13.828125 -2.140625 L 13.84375 -2.140625 L 16.453125 -7.796875 L 19.34375 -7.796875 L 15.546875 0 L 12.5 0 L 9.6875 -5.625 L 9.671875 -5.625 L 6.890625 0 Z M 3.84375 0 "/></g></g></g><g fill="#fff5ee" fill-opacity="1"><g transform="translate(185.165585, 104.673344)"><g><path d="M 4.296875 0.28125 C 3.035156 0.28125 2.054688 0.09375 1.359375 -0.28125 C 0.660156 -0.664062 0.3125 -1.210938 0.3125 -1.921875 C 0.3125 -2.671875 0.734375 -3.289062 1.578125 -3.78125 C 2.429688 -4.269531 3.664062 -4.582031 5.28125 -4.71875 L 8.625 -5.015625 C 8.988281 -5.046875 9.171875 -5.171875 9.171875 -5.390625 C 9.171875 -5.671875 8.925781 -5.910156 8.4375 -6.109375 C 7.945312 -6.304688 7.3125 -6.40625 6.53125 -6.40625 C 5.882812 -6.40625 5.234375 -6.332031 4.578125 -6.1875 C 3.921875 -6.050781 3.300781 -5.859375 2.71875 -5.609375 C 2.144531 -5.367188 1.648438 -5.085938 1.234375 -4.765625 L 0.390625 -6.265625 C 0.828125 -6.628906 1.367188 -6.945312 2.015625 -7.21875 C 2.671875 -7.488281 3.382812 -7.695312 4.15625 -7.84375 C 4.925781 -8 5.710938 -8.078125 6.515625 -8.078125 C 7.566406 -8.078125 8.492188 -7.960938 9.296875 -7.734375 C 10.109375 -7.503906 10.742188 -7.164062 11.203125 -6.71875 C 11.660156 -6.28125 11.890625 -5.75 11.890625 -5.125 L 11.890625 -2.171875 C 11.890625 -1.953125 11.957031 -1.773438 12.09375 -1.640625 C 12.238281 -1.515625 12.429688 -1.453125 12.671875 -1.453125 C 12.859375 -1.453125 13.035156 -1.488281 13.203125 -1.5625 C 13.378906 -1.632812 13.523438 -1.734375 13.640625 -1.859375 L 14.28125 -0.546875 C 14.039062 -0.296875 13.695312 -0.0976562 13.25 0.046875 C 12.800781 0.203125 12.3125 0.28125 11.78125 0.28125 C 11.03125 0.28125 10.421875 0.113281 9.953125 -0.21875 C 9.492188 -0.550781 9.234375 -0.992188 9.171875 -1.546875 L 9.15625 -1.75 L 9.140625 -1.75 C 8.765625 -1.144531 8.140625 -0.65625 7.265625 -0.28125 C 6.398438 0.09375 5.410156 0.28125 4.296875 0.28125 Z M 5.1875 -1.484375 C 5.957031 -1.484375 6.640625 -1.566406 7.234375 -1.734375 C 7.828125 -1.910156 8.289062 -2.144531 8.625 -2.4375 C 8.957031 -2.738281 9.125 -3.078125 9.125 -3.453125 L 9.125 -3.65625 L 5.484375 -3.359375 C 3.890625 -3.234375 3.09375 -2.894531 3.09375 -2.34375 C 3.09375 -1.769531 3.789062 -1.484375 5.1875 -1.484375 Z M 5.1875 -1.484375 "/></g></g></g><g fill="#fff5ee" fill-opacity="1"><g transform="translate(199.474842, 104.673344)"><g><path d="M 6.578125 -8.078125 C 7.441406 -8.078125 8.144531 -7.789062 8.6875 -7.21875 C 9.238281 -6.65625 9.550781 -5.875 9.625 -4.875 L 7.09375 -4.34375 C 7.050781 -4.945312 6.882812 -5.421875 6.59375 -5.765625 C 6.300781 -6.117188 5.929688 -6.296875 5.484375 -6.296875 C 4.835938 -6.296875 4.328125 -6.035156 3.953125 -5.515625 C 3.578125 -5.003906 3.390625 -4.3125 3.390625 -3.4375 L 3.390625 0 L 0.609375 0 L 0.609375 -7.796875 L 2.953125 -7.796875 L 3.328125 -6.03125 L 3.34375 -6.03125 C 3.632812 -6.664062 4.066406 -7.164062 4.640625 -7.53125 C 5.222656 -7.894531 5.867188 -8.078125 6.578125 -8.078125 Z M 6.578125 -8.078125 "/></g></g></g><g fill="#fff5ee" fill-opacity="1"><g transform="translate(209.293426, 104.673344)"><g><path d="M 6.859375 0.28125 C 5.585938 0.28125 4.460938 0.101562 3.484375 -0.25 C 2.515625 -0.601562 1.753906 -1.097656 1.203125 -1.734375 C 0.648438 -2.367188 0.375 -3.101562 0.375 -3.9375 C 0.375 -4.75 0.625 -5.460938 1.125 -6.078125 C 1.632812 -6.703125 2.335938 -7.191406 3.234375 -7.546875 C 4.128906 -7.898438 5.15625 -8.078125 6.3125 -8.078125 C 7.445312 -8.078125 8.441406 -7.898438 9.296875 -7.546875 C 10.160156 -7.191406 10.832031 -6.707031 11.3125 -6.09375 C 11.789062 -5.476562 12.03125 -4.753906 12.03125 -3.921875 C 12.03125 -3.828125 12.023438 -3.707031 12.015625 -3.5625 C 12.003906 -3.425781 11.984375 -3.304688 11.953125 -3.203125 L 3.359375 -3.203125 C 3.460938 -2.828125 3.691406 -2.507812 4.046875 -2.25 C 4.410156 -1.988281 4.851562 -1.789062 5.375 -1.65625 C 5.90625 -1.53125 6.46875 -1.46875 7.0625 -1.46875 C 7.632812 -1.46875 8.1875 -1.507812 8.71875 -1.59375 C 9.25 -1.6875 9.734375 -1.8125 10.171875 -1.96875 C 10.617188 -2.132812 10.984375 -2.320312 11.265625 -2.53125 L 12.140625 -1.125 C 11.785156 -0.851562 11.332031 -0.609375 10.78125 -0.390625 C 10.226562 -0.179688 9.613281 -0.0195312 8.9375 0.09375 C 8.269531 0.21875 7.578125 0.28125 6.859375 0.28125 Z M 3.296875 -4.5625 L 9.21875 -4.5625 C 9.1875 -4.9375 9.035156 -5.257812 8.765625 -5.53125 C 8.492188 -5.8125 8.140625 -6.023438 7.703125 -6.171875 C 7.273438 -6.328125 6.796875 -6.40625 6.265625 -6.40625 C 5.734375 -6.40625 5.25 -6.328125 4.8125 -6.171875 C 4.382812 -6.015625 4.035156 -5.796875 3.765625 -5.515625 C 3.492188 -5.242188 3.335938 -4.925781 3.296875 -4.5625 Z M 3.296875 -4.5625 "/></g></g></g><g fill="#fff5ee" fill-opacity="1"><g transform="translate(221.973857, 104.673344)"><g/></g></g><g fill="#fff5ee" fill-opacity="1"><g transform="translate(225.96218, 104.673344)"><g><path d="M 0.765625 0 L 0.765625 -10.84375 L 8.03125 -10.84375 C 10.125 -10.84375 11.726562 -10.375 12.84375 -9.4375 C 13.957031 -8.507812 14.515625 -7.171875 14.515625 -5.421875 C 14.515625 -3.671875 13.957031 -2.328125 12.84375 -1.390625 C 11.726562 -0.460938 10.125 0 8.03125 0 Z M 3.75 -2.140625 L 7.640625 -2.140625 C 8.890625 -2.140625 9.847656 -2.425781 10.515625 -3 C 11.191406 -3.570312 11.53125 -4.378906 11.53125 -5.421875 C 11.53125 -6.484375 11.191406 -7.296875 10.515625 -7.859375 C 9.847656 -8.421875 8.890625 -8.703125 7.640625 -8.703125 L 3.75 -8.703125 Z M 3.75 -2.140625 "/></g></g></g><g fill="#fff5ee" fill-opacity="1"><g transform="translate(241.002119, 104.673344)"><g><path d="M 6.859375 0.28125 C 5.585938 0.28125 4.460938 0.101562 3.484375 -0.25 C 2.515625 -0.601562 1.753906 -1.097656 1.203125 -1.734375 C 0.648438 -2.367188 0.375 -3.101562 0.375 -3.9375 C 0.375 -4.75 0.625 -5.460938 1.125 -6.078125 C 1.632812 -6.703125 2.335938 -7.191406 3.234375 -7.546875 C 4.128906 -7.898438 5.15625 -8.078125 6.3125 -8.078125 C 7.445312 -8.078125 8.441406 -7.898438 9.296875 -7.546875 C 10.160156 -7.191406 10.832031 -6.707031 11.3125 -6.09375 C 11.789062 -5.476562 12.03125 -4.753906 12.03125 -3.921875 C 12.03125 -3.828125 12.023438 -3.707031 12.015625 -3.5625 C 12.003906 -3.425781 11.984375 -3.304688 11.953125 -3.203125 L 3.359375 -3.203125 C 3.460938 -2.828125 3.691406 -2.507812 4.046875 -2.25 C 4.410156 -1.988281 4.851562 -1.789062 5.375 -1.65625 C 5.90625 -1.53125 6.46875 -1.46875 7.0625 -1.46875 C 7.632812 -1.46875 8.1875 -1.507812 8.71875 -1.59375 C 9.25 -1.6875 9.734375 -1.8125 10.171875 -1.96875 C 10.617188 -2.132812 10.984375 -2.320312 11.265625 -2.53125 L 12.140625 -1.125 C 11.785156 -0.851562 11.332031 -0.609375 10.78125 -0.390625 C 10.226562 -0.179688 9.613281 -0.0195312 8.9375 0.09375 C 8.269531 0.21875 7.578125 0.28125 6.859375 0.28125 Z M 3.296875 -4.5625 L 9.21875 -4.5625 C 9.1875 -4.9375 9.035156 -5.257812 8.765625 -5.53125 C 8.492188 -5.8125 8.140625 -6.023438 7.703125 -6.171875 C 7.273438 -6.328125 6.796875 -6.40625 6.265625 -6.40625 C 5.734375 -6.40625 5.25 -6.328125 4.8125 -6.171875 C 4.382812 -6.015625 4.035156 -5.796875 3.765625 -5.515625 C 3.492188 -5.242188 3.335938 -4.925781 3.296875 -4.5625 Z M 3.296875 -4.5625 "/></g></g></g><g fill="#fff5ee" fill-opacity="1"><g transform="translate(253.682549, 104.673344)"><g><path d="M 4.390625 0 L 0 -7.796875 L 2.984375 -7.796875 L 6.15625 -1.796875 L 6.171875 -1.796875 L 9.34375 -7.796875 L 12.328125 -7.796875 L 7.90625 0 Z M 4.390625 0 "/></g></g></g><g fill="#fff5ee" fill-opacity="1"><g transform="translate(265.997639, 104.673344)"><g><path d="M 6.859375 0.28125 C 5.585938 0.28125 4.460938 0.101562 3.484375 -0.25 C 2.515625 -0.601562 1.753906 -1.097656 1.203125 -1.734375 C 0.648438 -2.367188 0.375 -3.101562 0.375 -3.9375 C 0.375 -4.75 0.625 -5.460938 1.125 -6.078125 C 1.632812 -6.703125 2.335938 -7.191406 3.234375 -7.546875 C 4.128906 -7.898438 5.15625 -8.078125 6.3125 -8.078125 C 7.445312 -8.078125 8.441406 -7.898438 9.296875 -7.546875 C 10.160156 -7.191406 10.832031 -6.707031 11.3125 -6.09375 C 11.789062 -5.476562 12.03125 -4.753906 12.03125 -3.921875 C 12.03125 -3.828125 12.023438 -3.707031 12.015625 -3.5625 C 12.003906 -3.425781 11.984375 -3.304688 11.953125 -3.203125 L 3.359375 -3.203125 C 3.460938 -2.828125 3.691406 -2.507812 4.046875 -2.25 C 4.410156 -1.988281 4.851562 -1.789062 5.375 -1.65625 C 5.90625 -1.53125 6.46875 -1.46875 7.0625 -1.46875 C 7.632812 -1.46875 8.1875 -1.507812 8.71875 -1.59375 C 9.25 -1.6875 9.734375 -1.8125 10.171875 -1.96875 C 10.617188 -2.132812 10.984375 -2.320312 11.265625 -2.53125 L 12.140625 -1.125 C 11.785156 -0.851562 11.332031 -0.609375 10.78125 -0.390625 C 10.226562 -0.179688 9.613281 -0.0195312 8.9375 0.09375 C 8.269531 0.21875 7.578125 0.28125 6.859375 0.28125 Z M 3.296875 -4.5625 L 9.21875 -4.5625 C 9.1875 -4.9375 9.035156 -5.257812 8.765625 -5.53125 C 8.492188 -5.8125 8.140625 -6.023438 7.703125 -6.171875 C 7.273438 -6.328125 6.796875 -6.40625 6.265625 -6.40625 C 5.734375 -6.40625 5.25 -6.328125 4.8125 -6.171875 C 4.382812 -6.015625 4.035156 -5.796875 3.765625 -5.515625 C 3.492188 -5.242188 3.335938 -4.925781 3.296875 -4.5625 Z M 3.296875 -4.5625 "/></g></g></g><g fill="#fff5ee" fill-opacity="1"><g transform="translate(278.67807, 104.673344)"><g><path d="M 0.609375 0 L 0.609375 -11.296875 L 3.390625 -11.296875 L 3.390625 0 Z M 0.609375 0 "/></g></g></g><g fill="#fff5ee" fill-opacity="1"><g transform="translate(282.681613, 104.673344)"><g><path d="M 6.453125 0.28125 C 5.234375 0.28125 4.164062 0.109375 3.25 -0.234375 C 2.34375 -0.585938 1.632812 -1.078125 1.125 -1.703125 C 0.625 -2.335938 0.375 -3.070312 0.375 -3.90625 C 0.375 -4.75 0.625 -5.476562 1.125 -6.09375 C 1.632812 -6.71875 2.34375 -7.203125 3.25 -7.546875 C 4.164062 -7.898438 5.234375 -8.078125 6.453125 -8.078125 C 7.679688 -8.078125 8.753906 -7.898438 9.671875 -7.546875 C 10.585938 -7.203125 11.296875 -6.71875 11.796875 -6.09375 C 12.296875 -5.476562 12.546875 -4.75 12.546875 -3.90625 C 12.546875 -3.070312 12.296875 -2.335938 11.796875 -1.703125 C 11.296875 -1.078125 10.585938 -0.585938 9.671875 -0.234375 C 8.753906 0.109375 7.679688 0.28125 6.453125 0.28125 Z M 6.453125 -1.484375 C 7.460938 -1.484375 8.265625 -1.703125 8.859375 -2.140625 C 9.460938 -2.578125 9.765625 -3.164062 9.765625 -3.90625 C 9.765625 -4.632812 9.460938 -5.21875 8.859375 -5.65625 C 8.265625 -6.101562 7.460938 -6.328125 6.453125 -6.328125 C 5.460938 -6.328125 4.664062 -6.101562 4.0625 -5.65625 C 3.46875 -5.21875 3.171875 -4.632812 3.171875 -3.90625 C 3.171875 -3.164062 3.46875 -2.578125 4.0625 -2.140625 C 4.664062 -1.703125 5.460938 -1.484375 6.453125 -1.484375 Z M 6.453125 -1.484375 "/></g></g></g><g fill="#fff5ee" fill-opacity="1"><g transform="translate(295.605609, 104.673344)"><g><path d="M 0.609375 3.203125 L 0.609375 -7.796875 L 3.015625 -7.796875 L 3.359375 -5.84375 L 3.375 -5.84375 C 3.59375 -6.289062 3.914062 -6.679688 4.34375 -7.015625 C 4.78125 -7.359375 5.289062 -7.617188 5.875 -7.796875 C 6.46875 -7.984375 7.097656 -8.078125 7.765625 -8.078125 C 8.765625 -8.078125 9.628906 -7.898438 10.359375 -7.546875 C 11.097656 -7.203125 11.671875 -6.71875 12.078125 -6.09375 C 12.484375 -5.476562 12.6875 -4.75 12.6875 -3.90625 C 12.6875 -3.070312 12.484375 -2.335938 12.078125 -1.703125 C 11.671875 -1.078125 11.097656 -0.585938 10.359375 -0.234375 C 9.628906 0.109375 8.769531 0.28125 7.78125 0.28125 C 7.113281 0.28125 6.488281 0.1875 5.90625 0 C 5.320312 -0.1875 4.8125 -0.445312 4.375 -0.78125 C 3.945312 -1.113281 3.625 -1.503906 3.40625 -1.953125 L 3.390625 -1.953125 L 3.390625 3.203125 Z M 6.59375 -1.65625 C 7.59375 -1.65625 8.394531 -1.859375 9 -2.265625 C 9.601562 -2.679688 9.90625 -3.226562 9.90625 -3.90625 C 9.90625 -4.570312 9.601562 -5.109375 9 -5.515625 C 8.394531 -5.929688 7.59375 -6.140625 6.59375 -6.140625 C 5.613281 -6.140625 4.820312 -5.929688 4.21875 -5.515625 C 3.613281 -5.109375 3.3125 -4.570312 3.3125 -3.90625 C 3.3125 -3.226562 3.613281 -2.679688 4.21875 -2.265625 C 4.820312 -1.859375 5.613281 -1.65625 6.59375 -1.65625 Z M 6.59375 -1.65625 "/></g></g></g><g fill="#fff5ee" fill-opacity="1"><g transform="translate(308.666601, 104.673344)"><g><path d="M 6.859375 0.28125 C 5.585938 0.28125 4.460938 0.101562 3.484375 -0.25 C 2.515625 -0.601562 1.753906 -1.097656 1.203125 -1.734375 C 0.648438 -2.367188 0.375 -3.101562 0.375 -3.9375 C 0.375 -4.75 0.625 -5.460938 1.125 -6.078125 C 1.632812 -6.703125 2.335938 -7.191406 3.234375 -7.546875 C 4.128906 -7.898438 5.15625 -8.078125 6.3125 -8.078125 C 7.445312 -8.078125 8.441406 -7.898438 9.296875 -7.546875 C 10.160156 -7.191406 10.832031 -6.707031 11.3125 -6.09375 C 11.789062 -5.476562 12.03125 -4.753906 12.03125 -3.921875 C 12.03125 -3.828125 12.023438 -3.707031 12.015625 -3.5625 C 12.003906 -3.425781 11.984375 -3.304688 11.953125 -3.203125 L 3.359375 -3.203125 C 3.460938 -2.828125 3.691406 -2.507812 4.046875 -2.25 C 4.410156 -1.988281 4.851562 -1.789062 5.375 -1.65625 C 5.90625 -1.53125 6.46875 -1.46875 7.0625 -1.46875 C 7.632812 -1.46875 8.1875 -1.507812 8.71875 -1.59375 C 9.25 -1.6875 9.734375 -1.8125 10.171875 -1.96875 C 10.617188 -2.132812 10.984375 -2.320312 11.265625 -2.53125 L 12.140625 -1.125 C 11.785156 -0.851562 11.332031 -0.609375 10.78125 -0.390625 C 10.226562 -0.179688 9.613281 -0.0195312 8.9375 0.09375 C 8.269531 0.21875 7.578125 0.28125 6.859375 0.28125 Z M 3.296875 -4.5625 L 9.21875 -4.5625 C 9.1875 -4.9375 9.035156 -5.257812 8.765625 -5.53125 C 8.492188 -5.8125 8.140625 -6.023438 7.703125 -6.171875 C 7.273438 -6.328125 6.796875 -6.40625 6.265625 -6.40625 C 5.734375 -6.40625 5.25 -6.328125 4.8125 -6.171875 C 4.382812 -6.015625 4.035156 -5.796875 3.765625 -5.515625 C 3.492188 -5.242188 3.335938 -4.925781 3.296875 -4.5625 Z M 3.296875 -4.5625 "/></g></g></g><g fill="#fff5ee" fill-opacity="1"><g transform="translate(321.347032, 104.673344)"><g><path d="M 6.578125 -8.078125 C 7.441406 -8.078125 8.144531 -7.789062 8.6875 -7.21875 C 9.238281 -6.65625 9.550781 -5.875 9.625 -4.875 L 7.09375 -4.34375 C 7.050781 -4.945312 6.882812 -5.421875 6.59375 -5.765625 C 6.300781 -6.117188 5.929688 -6.296875 5.484375 -6.296875 C 4.835938 -6.296875 4.328125 -6.035156 3.953125 -5.515625 C 3.578125 -5.003906 3.390625 -4.3125 3.390625 -3.4375 L 3.390625 0 L 0.609375 0 L 0.609375 -7.796875 L 2.953125 -7.796875 L 3.328125 -6.03125 L 3.34375 -6.03125 C 3.632812 -6.664062 4.066406 -7.164062 4.640625 -7.53125 C 5.222656 -7.894531 5.867188 -8.078125 6.578125 -8.078125 Z M 6.578125 -8.078125 "/></g></g></g><g clip-path="url(#19d5aa36cc)"><g clip-path="url(#20a81f8b22)"><g clip-path="url(#749346d3a3)"><path fill="#fff5ee" d="M 213.753906 65.863281 C 213.816406 65.878906 213.878906 65.851562 213.902344 65.796875 C 213.929688 65.738281 213.910156 65.675781 213.855469 65.640625 L 207.703125 61.878906 C 207.34375 61.660156 207.074219 61.328125 206.929688 60.933594 C 206.78125 60.542969 206.777344 60.109375 206.90625 59.714844 C 206.90625 59.714844 209.148438 52.855469 209.148438 52.855469 C 209.164062 52.796875 209.136719 52.734375 209.082031 52.707031 C 209.023438 52.679688 208.957031 52.703125 208.925781 52.753906 L 205.164062 58.910156 C 204.941406 59.265625 204.613281 59.539062 204.21875 59.683594 C 203.824219 59.828125 203.394531 59.835938 203 59.707031 C 203 59.707031 196.140625 57.464844 196.140625 57.464844 C 196.082031 57.445312 196.019531 57.472656 195.992188 57.53125 C 195.964844 57.585938 195.984375 57.652344 196.039062 57.6875 L 202.195312 61.453125 C 202.550781 61.667969 202.824219 62 202.96875 62.390625 C 203.113281 62.785156 203.121094 63.214844 202.992188 63.613281 C 202.992188 63.613281 200.753906 70.46875 200.753906 70.46875 C 200.730469 70.53125 200.757812 70.59375 200.816406 70.621094 C 200.871094 70.644531 200.9375 70.625 200.972656 70.570312 L 204.734375 64.417969 C 204.953125 64.0625 205.285156 63.789062 205.679688 63.644531 C 206.070312 63.496094 206.5 63.492188 206.898438 63.621094 C 206.898438 63.621094 213.753906 65.863281 213.753906 65.863281 Z M 212.835938 65.304688 L 206.972656 63.386719 C 206.523438 63.242188 206.039062 63.25 205.59375 63.414062 C 205.148438 63.578125 204.773438 63.886719 204.527344 64.289062 C 204.527344 64.289062 201.308594 69.554688 201.308594 69.554688 C 201.308594 69.554688 203.226562 63.6875 203.226562 63.6875 C 203.371094 63.238281 203.359375 62.753906 203.195312 62.308594 C 203.035156 61.863281 202.722656 61.488281 202.324219 61.238281 C 202.324219 61.238281 197.058594 58.023438 197.058594 58.023438 C 197.058594 58.023438 202.921875 59.9375 202.921875 59.9375 C 203.371094 60.085938 203.859375 60.074219 204.304688 59.910156 C 204.746094 59.75 205.125 59.441406 205.371094 59.035156 C 205.371094 59.035156 208.589844 53.773438 208.589844 53.773438 C 208.589844 53.773438 206.671875 59.636719 206.671875 59.636719 C 206.527344 60.085938 206.535156 60.574219 206.699219 61.015625 C 206.863281 61.460938 207.171875 61.839844 207.574219 62.085938 C 207.574219 62.085938 212.835938 65.304688 212.835938 65.304688 Z M 212.835938 65.304688 " fill-opacity="1" fill-rule="evenodd"/></g></g></g><g clip-path="url(#d6043198c1)"><g clip-path="url(#b2318597ca)"><g clip-path="url(#fb05d162e8)"><path fill="#fff5ee" d="M 250.121094 60.109375 C 250.179688 60.132812 250.246094 60.101562 250.269531 60.046875 C 250.296875 59.988281 250.277344 59.921875 250.222656 59.890625 L 238.230469 52.558594 C 237.515625 52.117188 236.964844 51.449219 236.675781 50.660156 C 236.386719 49.871094 236.367188 49.007812 236.628906 48.207031 C 236.628906 48.207031 240.996094 34.847656 240.996094 34.847656 C 241.015625 34.785156 240.984375 34.722656 240.929688 34.699219 C 240.875 34.671875 240.808594 34.691406 240.773438 34.746094 L 233.441406 46.734375 C 233 47.453125 232.335938 48 231.546875 48.292969 C 230.757812 48.582031 229.894531 48.597656 229.09375 48.339844 C 229.09375 48.339844 215.730469 43.972656 215.730469 43.972656 C 215.671875 43.953125 215.609375 43.980469 215.582031 44.039062 C 215.558594 44.09375 215.574219 44.160156 215.628906 44.195312 L 227.621094 51.527344 C 228.339844 51.964844 228.886719 52.636719 229.179688 53.421875 C 229.46875 54.210938 229.484375 55.074219 229.222656 55.875 L 224.859375 69.234375 C 224.839844 69.292969 224.867188 69.359375 224.921875 69.386719 C 224.976562 69.410156 225.046875 69.390625 225.078125 69.335938 L 232.410156 57.347656 C 232.851562 56.628906 233.519531 56.078125 234.308594 55.789062 C 235.09375 55.5 235.960938 55.484375 236.761719 55.746094 C 236.761719 55.746094 250.121094 60.109375 250.121094 60.109375 Z M 249.203125 59.554688 L 236.835938 55.511719 C 235.984375 55.230469 235.0625 55.25 234.222656 55.5625 C 233.382812 55.867188 232.671875 56.453125 232.203125 57.21875 C 232.203125 57.21875 225.414062 68.320312 225.414062 68.320312 C 225.414062 68.320312 229.457031 55.953125 229.457031 55.953125 C 229.734375 55.097656 229.71875 54.179688 229.40625 53.339844 C 229.097656 52.496094 228.515625 51.785156 227.75 51.316406 C 227.75 51.316406 216.648438 44.53125 216.648438 44.53125 C 216.648438 44.53125 229.015625 48.570312 229.015625 48.570312 C 229.867188 48.847656 230.789062 48.832031 231.628906 48.523438 C 232.472656 48.210938 233.179688 47.628906 233.648438 46.863281 C 233.648438 46.863281 240.4375 35.765625 240.4375 35.765625 C 240.4375 35.765625 236.398438 48.132812 236.398438 48.132812 C 236.121094 48.984375 236.136719 49.902344 236.445312 50.746094 C 236.753906 51.582031 237.339844 52.296875 238.105469 52.765625 Z M 249.203125 59.554688 " fill-opacity="1" fill-rule="evenodd"/></g></g></g></svg>